<svg width="135" height="135" viewBox="0 0 135 135" fill="none" xmlns="http://www.w3.org/2000/svg">
<g clip-path="url(#clip0_1_96)">
<path d="M67.1955 128.801C67.222 128.852 67.2749 128.878 67.3279 128.878H68.281C68.3604 128.878 68.4398 128.801 68.4398 128.725L68.3869 122.959V122.806C68.3869 122.781 68.3604 122.73 68.3339 122.704C68.3075 122.679 68.281 122.653 68.228 122.653L67.2484 122.679C67.169 122.679 67.0896 122.755 67.0896 122.832L67.116 126.556L64.7332 122.857L64.6803 122.781C64.6538 122.73 64.6008 122.704 64.5479 122.704H63.5948C63.5153 122.704 63.4359 122.781 63.4359 122.857L63.4889 128.597V128.776C63.4889 128.801 63.5153 128.852 63.5418 128.878C63.5683 128.903 63.5948 128.929 63.6477 128.929L64.6273 128.903C64.7068 128.903 64.7862 128.827 64.7862 128.75L64.7597 125.051L67.1425 128.75L67.1955 128.801Z" fill="#111111"/>
<path d="M77.3623 121.607L76.5415 121.76C76.4886 121.76 76.4356 121.811 76.4092 121.888L75.4296 127.857L75.4031 128.087C75.4031 128.138 75.4031 128.189 75.456 128.214C75.4825 128.24 75.509 128.265 75.5619 128.265H75.5884L76.568 128.087C76.621 128.087 76.6739 128.036 76.7004 127.959L76.9122 126.429L78.8185 126.097L79.6392 127.449C79.6657 127.5 79.7451 127.525 79.7981 127.525L80.7512 127.372C80.8041 127.372 80.8306 127.347 80.8571 127.296C80.8836 127.245 80.8836 127.194 80.8571 127.168L77.5211 121.684C77.4682 121.633 77.4152 121.607 77.3623 121.607ZM77.0711 125.23L77.3093 123.673L78.1566 125.025L77.0711 125.23Z" fill="#111111"/>
<path d="M45.4059 125C45.4324 125.026 45.4589 125.077 45.4853 125.077L46.3855 125.459C46.412 125.459 46.412 125.459 46.4385 125.459C46.4914 125.459 46.5444 125.434 46.5708 125.383L49.0331 119.949C49.0596 119.923 49.0596 119.872 49.0331 119.847C49.0066 119.821 48.9801 119.77 48.9537 119.77L48.1859 119.464L48.0535 119.413C48.027 119.388 47.9741 119.388 47.9476 119.413C47.9211 119.439 47.8682 119.464 47.8682 119.49L46.915 121.582L44.6911 120.663L45.6442 118.571C45.6707 118.495 45.6442 118.418 45.5648 118.393L44.797 118.061L44.6646 118.01C44.6381 117.985 44.5852 117.985 44.5587 118.01C44.5322 118.036 44.4793 118.061 44.4793 118.087L42.017 123.52C41.9905 123.597 42.017 123.673 42.0964 123.699L42.9966 124.082C43.0231 124.107 43.076 124.107 43.1025 124.082C43.129 124.056 43.1819 124.031 43.1819 124.005L44.2145 121.684L46.4385 122.602L45.4059 124.923C45.3794 124.923 45.3794 124.975 45.4059 125Z" fill="#111111"/>
<path d="M53.1104 122.245C53.1898 122.27 53.2693 122.219 53.2957 122.143L53.5605 121.301C53.5605 121.275 53.5605 121.224 53.5605 121.199C53.534 121.173 53.5075 121.148 53.4811 121.122L51.4689 120.561C51.3895 120.536 51.3101 120.587 51.2836 120.663L51.0188 121.505C51.0188 121.531 51.0188 121.582 51.0188 121.607C51.0453 121.633 51.0718 121.658 51.0982 121.684L51.4954 121.786L50.3569 125.51L49.9598 125.408C49.9333 125.383 49.8804 125.408 49.8539 125.408C49.8274 125.434 49.8009 125.459 49.7745 125.485L49.5362 126.327C49.5097 126.403 49.5627 126.48 49.6421 126.505L51.4954 127.041L51.6542 127.092C51.6807 127.092 51.6807 127.092 51.7072 127.092C51.7601 127.092 51.8396 127.041 51.8396 126.99L52.1043 126.148C52.1308 126.071 52.0778 125.995 51.9984 125.969L51.6013 125.842L52.7397 122.117L53.1104 122.245Z" fill="#111111"/>
<path d="M58.432 122.015C57.9025 121.939 57.373 122.015 56.9229 122.219C56.4463 122.423 56.0756 122.781 55.7579 123.214C55.4402 123.673 55.2549 124.184 55.149 124.796C55.0431 125.383 55.0696 125.944 55.2284 126.454C55.3873 126.964 55.652 127.398 56.0227 127.755C56.3934 128.087 56.8699 128.316 57.3994 128.393C57.5583 128.418 57.6907 128.418 57.8495 128.418C58.2202 128.418 58.5908 128.342 58.935 128.189C59.4116 127.985 59.7822 127.628 60.1 127.194C60.4177 126.76 60.603 126.225 60.7089 125.638C60.8148 125.026 60.7619 124.464 60.6295 123.954C60.4706 123.418 60.2059 122.985 59.8352 122.653C59.4381 122.321 58.9615 122.117 58.432 122.015ZM59.4116 125.434C59.3586 125.842 59.2263 126.199 59.0145 126.48C58.8291 126.76 58.6173 126.964 58.3526 127.092C58.0878 127.219 57.8495 127.245 57.5583 127.219C57.2935 127.194 57.0552 127.066 56.8434 126.862C56.6316 126.658 56.4993 126.403 56.4198 126.097C56.3404 125.765 56.3139 125.383 56.3934 124.975C56.4463 124.566 56.5787 124.209 56.764 123.929C56.9493 123.648 57.1611 123.444 57.4259 123.291C57.6112 123.189 57.7966 123.138 58.0084 123.138C58.0878 123.138 58.1408 123.138 58.2202 123.163C58.4849 123.214 58.7232 123.316 58.935 123.52C59.1468 123.725 59.2792 123.98 59.3586 124.311C59.4645 124.668 59.491 125.051 59.4116 125.434Z" fill="#111111"/>
<path d="M39.2372 116.429C39.449 116.403 39.6608 116.48 39.9255 116.633C40.1638 116.76 40.3491 116.939 40.455 117.117C40.561 117.296 40.6404 117.551 40.6669 117.857L40.6933 118.01C40.6933 118.061 40.7198 118.087 40.7463 118.112C40.7728 118.138 40.8257 118.138 40.8522 118.138L41.7259 118.01L41.8583 117.959C41.9377 117.934 41.9642 117.883 41.9642 117.806L41.9377 117.679C41.8847 117.219 41.7259 116.837 41.4876 116.48C41.2493 116.148 40.9316 115.867 40.5345 115.612C39.9785 115.281 39.4225 115.153 38.9459 115.23C38.4164 115.306 37.9928 115.587 37.7016 116.071C37.1985 116.888 37.4368 117.781 38.4429 118.75C38.7606 119.056 38.9459 119.337 39.0254 119.566C39.0783 119.745 39.0518 119.898 38.9459 120.102C38.84 120.281 38.7076 120.383 38.5223 120.408C38.337 120.434 38.0987 120.383 37.8075 120.204C37.5427 120.051 37.3309 119.847 37.1985 119.566C37.0397 119.286 36.9603 119.005 36.9603 118.648V118.469C36.9603 118.418 36.9338 118.393 36.9073 118.367C36.8808 118.342 36.8279 118.316 36.7749 118.342L35.8483 118.495L35.7159 118.546C35.6629 118.571 35.61 118.622 35.61 118.699V118.827C35.6629 119.311 35.7953 119.77 36.0601 120.179C36.3248 120.612 36.6425 120.944 37.0662 121.173C37.4368 121.403 37.8075 121.531 38.1781 121.582C38.284 121.582 38.3635 121.607 38.4694 121.607C38.7341 121.607 38.9989 121.556 39.2372 121.454C39.5549 121.301 39.8196 121.097 40.005 120.765C40.3227 120.281 40.4021 119.77 40.2432 119.311C40.0844 118.878 39.7932 118.418 39.3431 117.959C38.9989 117.628 38.8136 117.372 38.7341 117.194C38.6812 117.041 38.7076 116.888 38.8136 116.735C38.9459 116.505 39.0518 116.429 39.2372 116.429Z" fill="#111111"/>
<path d="M102.647 116.352C102.408 116.531 102.117 116.633 101.826 116.658C101.482 116.684 101.19 116.633 100.873 116.531L100.714 116.48C100.661 116.454 100.634 116.48 100.581 116.48C100.555 116.505 100.529 116.531 100.502 116.582L100.317 117.474V117.602C100.317 117.679 100.343 117.73 100.423 117.755L100.555 117.806C100.873 117.908 101.19 117.934 101.508 117.934C101.667 117.934 101.852 117.908 102.038 117.883C102.541 117.806 102.991 117.628 103.361 117.347C103.706 117.092 103.97 116.811 104.156 116.505C104.341 116.173 104.42 115.842 104.42 115.51C104.394 115.179 104.288 114.847 104.05 114.566C103.679 114.107 103.229 113.852 102.726 113.827C102.276 113.775 101.72 113.903 101.085 114.133C100.687 114.286 100.37 114.388 100.105 114.388C99.9196 114.388 99.7872 114.311 99.6813 114.158C99.5754 114.005 99.5489 113.878 99.6019 113.699C99.6548 113.495 99.8137 113.342 100.025 113.163C100.264 113.01 100.476 112.908 100.687 112.883C100.926 112.857 101.19 112.883 101.482 112.959L101.64 113.01C101.667 113.036 101.72 113.01 101.773 113.01C101.799 112.985 101.826 112.959 101.852 112.908L102.038 112.066V111.913C102.038 111.837 101.985 111.786 101.932 111.76L101.799 111.735C101.349 111.633 100.899 111.607 100.502 111.684C100.105 111.76 99.7078 111.939 99.3106 112.219C98.7811 112.602 98.4634 113.036 98.331 113.495C98.1986 113.98 98.331 114.464 98.6752 114.923C99.0723 115.434 99.8931 115.918 101.508 115.255C101.932 115.102 102.249 115.025 102.514 115.025C102.7 115.025 102.858 115.128 102.991 115.306C103.123 115.459 103.15 115.612 103.123 115.791C103.044 115.995 102.911 116.173 102.647 116.352Z" fill="#111111"/>
<path d="M88.0584 119.796L89.594 119.133L91.6591 123.469L91.7385 123.622C91.765 123.673 91.818 123.699 91.8709 123.699C91.8974 123.699 91.9239 123.699 91.9239 123.673L92.6652 123.342L92.7976 123.291C92.824 123.265 92.8505 123.24 92.877 123.214C92.9035 123.189 92.9035 123.138 92.877 123.112L90.7325 118.622L92.1092 118.01L92.2416 117.959C92.268 117.934 92.2945 117.908 92.321 117.883C92.3475 117.857 92.3475 117.806 92.321 117.781L91.9503 117.015C91.9239 116.939 91.818 116.913 91.765 116.939L87.7142 118.724L87.5818 118.776C87.5553 118.801 87.5289 118.827 87.5024 118.852C87.4759 118.878 87.4759 118.929 87.5024 118.954L87.8731 119.719C87.8995 119.796 87.979 119.821 88.0584 119.796Z" fill="#111111"/>
<path d="M96.2395 120.459L96.6896 121.224C96.7161 121.25 96.7425 121.275 96.769 121.301H96.7955C96.822 121.301 96.8484 121.301 96.8749 121.275L98.6753 120.23C98.7547 120.179 98.7812 120.102 98.7282 120.025L98.2781 119.26C98.2517 119.235 98.2252 119.209 98.1987 119.184C98.1722 119.184 98.1193 119.184 98.0928 119.209L97.7486 119.413L95.71 116.071L96.0542 115.867C96.1336 115.816 96.1601 115.74 96.1071 115.663L95.657 114.898C95.6305 114.872 95.6041 114.847 95.5776 114.821C95.5511 114.821 95.4982 114.821 95.4717 114.847L93.6713 115.893C93.6449 115.918 93.6184 115.944 93.5919 115.969C93.5919 115.995 93.5919 116.046 93.6184 116.071L94.095 116.811C94.1479 116.888 94.2273 116.888 94.3068 116.862L94.6509 116.658L96.7161 120L96.3719 120.204C96.213 120.306 96.1865 120.383 96.2395 120.459Z" fill="#111111"/>
<path d="M86.5493 125.561L86.6022 125.612C86.6287 125.638 86.7081 125.663 86.7346 125.638L87.7672 125.332C87.8201 125.306 87.8466 125.281 87.8731 125.23C87.8731 125.179 87.8731 125.128 87.8201 125.102L85.6491 123.189C85.8874 122.985 86.0462 122.755 86.1521 122.5C86.311 122.117 86.3375 121.709 86.2051 121.276C86.0992 120.944 85.9139 120.663 85.6491 120.434C85.3844 120.204 85.0931 120.051 84.7225 120C84.3783 119.949 84.0076 119.974 83.637 120.077L81.7836 120.638L81.6248 120.689C81.5983 120.689 81.5454 120.714 81.5454 120.765C81.5189 120.791 81.5189 120.842 81.5454 120.867L83.3457 126.352L83.3987 126.505C83.4251 126.556 83.4781 126.607 83.531 126.607C83.5575 126.607 83.5575 126.607 83.584 126.607L84.5107 126.327C84.5371 126.327 84.5901 126.301 84.5901 126.25C84.6166 126.224 84.6166 126.173 84.5901 126.148L83.8752 123.929L84.4842 123.75L86.5493 125.561ZM83.5575 122.857L83.1074 121.429L83.9547 121.173C84.2194 121.097 84.4577 121.097 84.6166 121.173C84.8019 121.25 84.9078 121.403 84.9872 121.633C85.0666 121.862 85.0402 122.041 84.9607 122.219C84.8813 122.372 84.696 122.5 84.4047 122.577L83.5575 122.857Z" fill="#111111"/>
<path d="M108.048 112.985L108.18 113.112C108.206 113.138 108.259 113.163 108.286 113.163C108.312 113.163 108.365 113.138 108.392 113.112L109.107 112.474C109.16 112.423 109.16 112.321 109.107 112.27L105.585 108.673L106.803 107.551C106.856 107.5 106.856 107.398 106.803 107.347L106.194 106.735C106.141 106.684 106.035 106.684 105.983 106.735L102.726 109.719L102.62 109.821C102.594 109.847 102.567 109.872 102.567 109.923C102.567 109.949 102.594 110 102.62 110.025L103.229 110.638C103.282 110.689 103.388 110.689 103.441 110.638L104.659 109.541L108.048 112.985Z" fill="#111111"/>
<path d="M57.0553 13.6735L57.9819 13.5459H58.0878C58.1673 13.5459 58.2202 13.4949 58.2202 13.4184L58.6174 10.3316C58.6438 10.1786 58.6438 10.051 58.6703 9.92346C58.7233 10.051 58.7762 10.1531 58.8292 10.2806L59.9676 13.0357L60.0206 13.1377C60.047 13.1888 60.1265 13.2398 60.1794 13.2398L61.0796 13.1122H61.1855C61.2649 13.1122 61.3179 13.0612 61.3179 12.9847L62.1122 7.14285L62.1386 6.96428C62.1386 6.91326 62.1386 6.86224 62.0857 6.83673C62.0592 6.81122 62.0063 6.78571 61.9533 6.78571L60.8413 6.93877C60.7619 6.93877 60.7354 6.98979 60.7089 7.06632L60.3648 10.051L60.3383 10.2806C60.3383 10.3826 60.3118 10.4592 60.3118 10.5612C60.2589 10.4082 60.1794 10.2551 60.1265 10.102L59.041 7.42346L58.988 7.32142C58.9615 7.2704 58.8821 7.21938 58.8292 7.24489L57.929 7.37244H57.7966C57.7172 7.37244 57.6642 7.42346 57.6642 7.49999L57.2936 10.5357C57.2671 10.7143 57.2406 10.8928 57.2406 11.0714C57.1612 10.8928 57.1082 10.7143 57.0288 10.5612L55.8904 7.75509C55.8639 7.70407 55.7845 7.65305 55.7315 7.65305L54.593 7.80611C54.5401 7.80611 54.5136 7.83162 54.4871 7.88264C54.4607 7.90815 54.4607 7.95917 54.4871 8.0102L56.8964 13.5714C56.9229 13.6479 56.9759 13.6735 57.0553 13.6735Z" fill="#111111"/>
<path d="M69.393 12.7041C69.393 12.7296 69.393 12.7806 69.4195 12.8061C69.446 12.8316 69.4725 12.8571 69.5254 12.8571L70.6109 12.9082C70.6904 12.9082 70.7698 12.8571 70.7698 12.7806L70.8757 10.3571L73.0467 7.11734C73.0732 7.06632 73.0732 7.0153 73.0467 6.96428C73.0202 6.91326 72.9673 6.88775 72.9143 6.88775L71.7494 6.83673H71.67C71.617 6.83673 71.5641 6.86224 71.5376 6.91326L70.4786 8.69897C70.3991 8.82652 70.3462 8.92856 70.2932 9.03061C70.2138 8.85203 70.1344 8.67346 70.0285 8.46938L69.2871 6.88775L69.2607 6.81122C69.2342 6.7602 69.1812 6.73469 69.1283 6.73469L67.8839 6.68367C67.831 6.65816 67.778 6.70918 67.7515 6.7602C67.7251 6.81122 67.7251 6.86224 67.7515 6.91326L69.4989 10.3316L69.393 12.602V12.7041Z" fill="#111111"/>
<path d="M76.7003 13.6479C76.8856 13.6735 77.071 13.699 77.2298 13.699C78.7654 13.699 79.9039 12.653 80.1951 10.9694C80.5128 9.13264 79.5862 7.70407 77.8652 7.42346C77.6799 7.39795 77.5211 7.37244 77.3357 7.37244C75.8266 7.37244 74.6352 8.44386 74.344 10.102C74.1851 10.9694 74.344 11.7857 74.7411 12.4235C75.2177 13.0867 75.8796 13.5204 76.7003 13.6479ZM75.8001 10.3316C75.9855 9.26019 76.6209 8.59693 77.3887 8.59693C77.4681 8.59693 77.5475 8.59693 77.6534 8.62244C78.686 8.80101 78.9772 9.84693 78.8184 10.7653C78.7125 11.4286 78.3948 11.9643 77.9711 12.2704C77.6799 12.4745 77.3357 12.551 76.9651 12.5C76.6209 12.449 76.3032 12.2704 76.1178 11.9898C75.8001 11.5561 75.6942 10.9694 75.8001 10.3316Z" fill="#111111"/>
<path d="M91.5797 11.6071C91.6062 11.5816 91.6062 11.5306 91.5797 11.5051C91.5532 11.4796 91.5268 11.4286 91.5003 11.4286L90.6531 11.0714L90.5207 11.0204C90.4942 10.9949 90.4413 10.9949 90.4148 11.0204C90.3883 11.0459 90.3354 11.0714 90.3354 11.0969L87.9525 16.301L87.8996 16.4286C87.8731 16.5051 87.8996 16.5816 87.979 16.6071L88.9586 17.0408C88.9851 17.0663 89.038 17.0663 89.0645 17.0408C89.091 17.0153 89.1439 16.9898 89.1439 16.9643L90.0441 15L90.3089 14.8725L90.8119 17.6786V17.7551C90.8119 17.8061 90.8649 17.8571 90.8913 17.8571L92.0828 18.3674C92.1092 18.3674 92.1357 18.3929 92.1357 18.3929C92.1622 18.3929 92.1887 18.3929 92.2151 18.3674C92.2681 18.3418 92.2681 18.2908 92.2681 18.2398L91.5532 14.3878L94.545 13.0102C94.598 12.9847 94.6244 12.9337 94.6244 12.8827C94.6244 12.8316 94.598 12.7806 94.545 12.7551L93.3006 12.2194C93.2477 12.1939 93.2212 12.1939 93.1683 12.2194L90.759 13.3929L91.5003 11.7602L91.5797 11.6071Z" fill="#111111"/>
<path d="M86.9994 11.5561C87.1582 11.0459 87.1053 10.5612 86.8405 10.1786C86.5493 9.69389 86.0463 9.38777 85.199 9.15817C84.6695 9.00511 84.1135 8.87756 83.7164 8.85205H83.6105C83.5575 8.85205 83.4781 8.90307 83.4781 8.95409L81.8102 14.3112L81.7572 14.4388C81.7572 14.4643 81.7572 14.5153 81.7572 14.5408C81.7837 14.5663 81.8102 14.5918 81.8366 14.6174L82.8692 14.9235C82.9486 14.949 83.028 14.898 83.0545 14.8214L83.7164 12.6786L84.0606 12.7806C84.5636 12.9592 84.6695 13.1633 84.6166 13.8265C84.5636 14.7194 84.5371 15.1021 84.5901 15.3061L84.6166 15.3827C84.6166 15.4337 84.6695 15.4592 84.7225 15.4847L85.8345 15.8163C85.8609 15.8163 85.8609 15.8163 85.8874 15.8163C85.9139 15.8163 85.9668 15.7908 85.9933 15.7908C86.0198 15.7653 86.0463 15.7143 86.0463 15.6633L85.9933 15.3827C85.9404 15.1786 85.9933 14.5153 86.0198 13.8776C86.0463 13.4184 85.9933 13.0357 85.808 12.7551C86.3904 12.551 86.8141 12.1429 86.9994 11.5561ZM85.6491 11.25C85.5167 11.6837 85.0667 11.8623 84.5107 11.6837L84.0871 11.5561L84.5107 10.1786C84.6166 10.2041 84.749 10.2296 84.9078 10.2806C85.755 10.5357 85.7286 10.9439 85.6491 11.25Z" fill="#111111"/>
<path d="M52.0514 9.7194C52.1308 9.69389 52.1837 9.61736 52.1573 9.54083L51.8925 8.64797C51.8925 8.62246 51.866 8.57144 51.8131 8.57144C51.7866 8.54593 51.7337 8.54593 51.7072 8.57144L48.5566 9.4643L48.4242 9.51532C48.3448 9.54083 48.2918 9.61736 48.3183 9.69389L49.9863 15.1276L50.0392 15.2806C50.0392 15.3061 50.0657 15.3572 50.1186 15.3572C50.1451 15.3572 50.1716 15.3827 50.1981 15.3827C50.2245 15.3827 50.2245 15.3827 50.251 15.3827L53.534 14.4643L53.6664 14.4133C53.7458 14.3878 53.7988 14.3112 53.7723 14.2347L53.5075 13.3418C53.4811 13.2653 53.4016 13.2143 53.3222 13.2398L51.0718 13.8776L50.6746 12.5765L52.5279 12.0408L52.6603 11.9898C52.7397 11.9643 52.7927 11.8878 52.7662 11.8112L52.5015 10.9184C52.5015 10.8929 52.475 10.8418 52.422 10.8418C52.3956 10.8163 52.3426 10.8163 52.3161 10.8418L50.3304 11.4031L50.0127 10.3316L51.9984 9.77042L52.0514 9.7194Z" fill="#111111"/>
<path d="M42.0436 11.9643L41.9641 11.9133C41.9112 11.8878 41.8582 11.8878 41.8318 11.8878L40.9581 12.2449L40.8257 12.2959C40.7463 12.3215 40.7198 12.4235 40.7463 12.4745L43.0761 17.7041L43.1556 17.8572C43.182 17.8827 43.2085 17.9082 43.235 17.9337C43.2615 17.9337 43.2615 17.9337 43.2879 17.9337C43.3144 17.9337 43.3144 17.9337 43.3409 17.9337L44.294 17.551C44.3205 17.5255 44.347 17.5 44.3734 17.4745C44.3999 17.449 44.3999 17.398 44.3734 17.3725L43.3409 15.051C43.182 14.7194 43.0497 14.4133 42.9173 14.1327C43.182 14.3112 43.4203 14.4898 43.6321 14.6174L46.5445 16.5561C46.5974 16.5817 46.6504 16.5817 46.6768 16.5817L47.4976 16.25L47.63 16.199C47.7094 16.1735 47.7359 16.097 47.7094 16.0204L45.3795 10.7653L45.3266 10.6378C45.3001 10.6123 45.2736 10.5868 45.2471 10.5612C45.2207 10.5357 45.1677 10.5357 45.1412 10.5612L44.3205 10.9184L44.1881 10.9694C44.1087 10.9949 44.0822 11.097 44.1087 11.148L45.1148 13.4184C45.2207 13.6735 45.353 13.9541 45.5119 14.2602C45.3266 14.1327 45.1148 13.9796 44.9294 13.8521L42.0436 11.9643Z" fill="#111111"/>
<path d="M32.1416 117.781L32.9094 118.367C32.9358 118.393 32.9623 118.393 32.9888 118.393C33.0153 118.393 33.0153 118.393 33.0417 118.393C33.0947 118.367 33.1212 118.342 33.1476 118.291L35.1598 112.296C35.1863 112.245 35.1598 112.168 35.1068 112.143L34.4449 111.658C34.392 111.633 34.339 111.607 34.2861 111.658L28.9645 114.923L28.7791 115.026C28.7262 115.051 28.7262 115.102 28.6997 115.128C28.6997 115.179 28.7262 115.23 28.7527 115.255L29.5469 115.842C29.5999 115.867 29.6793 115.893 29.7323 115.842L31.0561 114.975L32.5916 116.122L32.0886 117.602C32.0886 117.679 32.0886 117.755 32.1416 117.781ZM32.1151 114.337L33.4918 113.495L32.9888 115L32.1151 114.337Z" fill="#111111"/>
<path d="M30.9767 110.332L31.0826 110.434C31.1356 110.485 31.2415 110.485 31.2944 110.434L31.9034 109.821C31.9563 109.77 31.9563 109.668 31.9034 109.617L29.4676 107.398L29.3617 107.296C29.3087 107.245 29.2028 107.245 29.1499 107.296L25.0461 111.505L24.9402 111.607C24.8873 111.658 24.8873 111.76 24.9402 111.811L25.6551 112.449C25.6815 112.474 25.708 112.5 25.761 112.5C25.7875 112.5 25.8404 112.474 25.8669 112.449L27.6143 110.638L28.7527 111.684L28.8586 111.786C28.9116 111.837 29.0175 111.837 29.0704 111.786L29.6529 111.173C29.6794 111.148 29.7059 111.097 29.7059 111.071C29.7059 111.046 29.6794 110.995 29.6529 110.969L28.4086 109.821L29.3617 108.852L30.9767 110.332Z" fill="#111111"/>
<path d="M1.13904 49.7194C2.01274 49.9745 2.88644 49.5153 3.17767 48.699C11.9412 21.5561 37.5697 3.29082 67.0637 3.13776C97.405 3.29082 123.06 21.5561 131.823 48.699C132.088 49.5153 132.988 49.9745 133.862 49.7194C134.286 49.5918 134.63 49.3112 134.815 48.9541C135.027 48.5714 135.054 48.1633 134.921 47.7551C125.761 19.3878 99.02 0.280612 67.355 0C67.2491 0 67.1696 0 67.0637 0C66.9578 0 66.8519 0 66.7725 0C35.9812 0.280612 9.24063 19.3878 0.0800052 47.7551C-0.0523737 48.1633 0.000577825 48.5714 0.185908 48.9541C0.397715 49.3112 0.7419 49.5918 1.13904 49.7194Z" fill="#111111"/>
<path d="M133.623 71.8877L133.729 71.8367C134.312 71.5051 134.55 70.8673 134.312 70.2551C134.126 69.7449 133.544 69.2347 132.564 69.5153C131.161 70.0255 129.625 70.5612 127.984 71.1224C126.607 71.6071 125.336 72.1173 124.171 72.653C123.721 72.1173 123.165 71.5816 122.556 71.0969C121.683 70.4081 120.862 69.8979 120.094 69.5408L120.068 69.5153L120.015 69.4898C119.618 69.3367 119.194 69.3622 118.77 69.6173C118.135 70.051 117.314 70.4337 116.335 70.7908C115.302 71.1735 114.19 71.5051 113.025 71.7857C111.86 72.0663 110.722 72.2959 109.583 72.4745C107.995 72.7041 106.724 72.7551 105.903 72.7041C105.983 72.551 106.035 72.3979 106.035 72.2194C106.088 71.5561 105.691 70.9949 105.056 70.8928C104.897 70.8673 104.738 70.8163 104.606 70.7653C104.738 70.6888 104.871 70.6122 105.056 70.5357C105.374 70.4337 105.718 70.3316 106.088 70.2551C106.459 70.1786 106.803 70.153 107.147 70.153C107.915 70.153 108.445 69.6173 108.445 68.852C108.445 68.0867 107.915 67.551 107.147 67.551C106.591 67.551 106.009 67.6275 105.427 67.7551C104.818 67.8826 104.262 68.0867 103.785 68.3418C103.256 68.5969 102.832 68.9286 102.461 69.2857C102.302 69.4388 102.17 69.6173 102.064 69.8214C100.158 70.7143 98.2781 71.3775 96.4777 71.8112C94.492 72.2959 92.9564 72.551 91.9239 72.551C91.5003 72.551 91.3149 72.3979 91.209 72.2959C90.9178 71.9643 90.6795 71.6326 90.5207 71.3775C90.3353 71.0459 90.1235 70.6888 89.8852 70.3316C89.4881 69.7704 88.9056 69.4643 88.2437 69.4643C87.5554 69.4643 86.8935 69.6684 86.2051 70.051L87.2112 64.7194C89.594 64.4898 92.1092 64.3112 94.6244 64.1837C95.1274 64.2347 95.4716 64.0561 95.6834 63.8775C95.9747 63.6479 96.107 63.2908 96.107 62.8826C96.107 62.0918 95.5246 61.5306 94.6509 61.5306C91.0766 61.6581 87.6348 61.9132 84.4577 62.2959C81.7042 62.6275 78.9243 63.0612 76.1973 63.5714C76.1708 63.3673 76.0913 63.2143 76.0119 63.1122C75.8795 62.9081 75.5883 62.653 75.0853 62.5765C74.3704 62.4745 73.7615 62.8316 73.5232 63.4439C73.4173 63.6735 73.3643 63.903 73.3379 64.1071C72.3583 64.3112 71.3522 64.5153 70.3726 64.7194L66.8248 65.4847C66.2688 65.5612 65.9776 65.8163 65.8452 66.0204C65.6864 66.2245 65.554 66.6071 65.6864 67.1173C65.8187 67.6275 66.1365 67.8826 66.3747 68.0102C66.7189 68.1888 67.0896 68.1888 67.4602 68.0612C68.6517 67.7806 69.7901 67.5255 70.8491 67.3214C71.511 67.1939 72.1729 67.0408 72.8348 66.9132C72.7554 67.602 72.7289 68.2653 72.7289 68.903C72.7289 69.1837 72.7289 69.4643 72.7554 69.7704C71.2463 70.153 69.4989 70.3571 67.5397 70.3571C66.7984 70.3571 66.057 70.3316 65.3157 70.2806C64.7332 70.2296 64.1508 70.153 63.5948 70.051C63.5683 69.949 63.5418 69.8469 63.4889 69.7449C63.1182 68.9286 62.3769 68.7755 61.715 68.9796C61.3179 69.1326 60.9472 69.3877 60.603 69.7194C59.9676 69.9745 59.3057 70.1786 58.7232 70.3826C56.6581 71.0969 55.3608 71.5306 55.3873 72.551C55.149 72.5765 54.6724 72.5765 53.6664 72.449C53.2427 72.3979 52.8986 72.3469 52.6073 72.3469C51.7336 72.3469 51.0453 72.1939 50.5422 71.8877C50.3834 71.7857 50.251 71.7092 50.1451 71.6071C50.4363 71.4541 50.7011 71.2755 50.9658 71.1224C51.7866 70.6888 52.5544 70.2551 53.1898 69.7959C54.3547 68.9541 55.3343 68.0867 56.1286 67.1939C56.9494 66.301 57.5583 65.3826 57.9554 64.4643C58.379 63.5459 58.5909 62.6786 58.5909 61.9388C58.5909 61.0459 58.3261 60.3061 57.8231 59.7449C57.2671 59.1326 56.4728 58.8265 55.4667 58.8265C54.4606 58.8265 53.4016 59.1326 52.3426 59.7449C51.3365 60.3316 50.4098 61.0969 49.5626 62.0663C48.7154 63.0357 48.0005 64.1581 47.471 65.4337C46.915 66.7347 46.6503 68.1122 46.6503 69.5408C46.6503 69.8724 46.6768 70.2296 46.7297 70.5612C41.4875 73.3163 35.6893 75.3826 29.5204 76.7347C25.3637 77.653 21.3659 78.1122 17.6063 78.1122C13.1849 78.0867 8.78991 77.6275 6.85717 73.9796C4.44788 69.4898 6.32766 63.2908 12.4171 55.5357C16.9709 49.7449 23.431 45.0255 31.109 41.9132C40.9845 37.9081 47.7887 38.1888 51.919 42.7296C52.3955 43.2398 53.1104 43.2908 53.6399 42.8316C54.1429 42.3979 54.3812 41.6071 53.7987 40.9694C49.5891 36.301 42.6789 35.3316 33.836 38.1888C30.7648 39.1837 27.826 40.4337 25.099 41.8877C34.2067 27.7806 50.0657 19.1837 67.5132 19.1837C86.5758 19.1837 103.706 29.4132 112.257 45.9184C112.522 46.4541 113.104 46.7857 113.713 46.7857C113.978 46.7857 114.216 46.7347 114.428 46.6071C115.223 46.2245 115.567 45.2806 115.17 44.5153C105.877 26.9898 87.6083 16.0714 67.3279 16.0714C47.0209 16.0714 28.7791 26.9643 19.6715 44.5153C19.5656 44.7194 19.5126 44.9745 19.5126 45.2041C16.8121 47.0918 14.3763 49.2092 12.2582 51.5561C7.54554 56.7347 2.14448 64.4388 3.28294 71.8112C4.44788 79.3367 11.8081 80.6888 17.474 80.6888C19.645 80.6888 21.5777 80.4847 22.7956 80.3571C31.4267 79.4643 39.9784 76.8877 47.5769 72.9337C47.6828 73.0612 47.7887 73.2143 47.8946 73.3418C48.8742 74.4132 50.4098 74.9745 52.4485 74.9745C53.6399 74.9745 55.0431 74.7449 56.6316 74.2602C57.373 74.0306 58.1672 73.75 59.0145 73.3673C59.0409 73.6479 59.0939 73.903 59.1998 74.1326C59.3322 74.5153 59.8087 75.3826 61.1855 75.3826C62.218 75.3826 63.0653 74.8979 63.5418 73.9796C63.7536 73.5969 63.886 73.2143 63.9919 72.8316C64.3096 72.8571 64.6803 72.8826 65.0245 72.9081C65.7658 72.9592 66.5601 72.9592 67.3808 72.9592C69.5254 72.9592 71.4316 72.7551 73.0731 72.3724C73.2584 72.9337 73.4967 73.4694 73.8144 73.9541C74.291 74.7194 74.9529 75.3571 75.7736 75.8928C76.5944 76.4286 77.6269 76.7602 78.8184 76.8877C79.6391 76.9898 80.2745 76.5561 80.4334 75.8418C80.5128 75.4847 80.4334 75.102 80.2216 74.8214C80.0627 74.6173 79.745 74.3367 79.1625 74.2857C78.3947 74.1837 77.7593 73.9796 77.3092 73.6734C76.8327 73.3673 76.4355 72.9592 76.1443 72.5C75.8531 72.0408 75.6413 71.5051 75.5089 70.8928C75.3765 70.2551 75.3235 69.5918 75.3235 68.903C75.3235 68.3928 75.35 67.8826 75.4295 67.3469L75.5883 66.3265C78.5271 65.7908 81.4659 65.3316 84.2988 64.9745L82.525 74.2347C82.3926 74.8979 82.7632 75.4847 83.4781 75.6632C84.087 75.8163 84.696 75.5867 84.9607 75.1275C85.808 73.9541 86.5228 73.1122 87.1053 72.6275C87.4495 72.3214 87.7142 72.1684 87.8996 72.1173C87.9525 72.1939 88.0055 72.3214 88.0584 72.449C88.3232 73.0357 88.7203 73.5969 89.1704 74.1071C89.7529 74.7959 90.6795 75.1275 91.8974 75.1275C92.5063 75.1275 93.2741 75.051 94.1743 74.8979C95.048 74.7449 96.0276 74.5408 97.0602 74.2857C98.0927 74.0306 99.2047 73.699 100.343 73.2908C100.899 73.0867 101.455 72.8826 102.011 72.653C101.985 72.7806 101.985 72.8826 101.985 72.9847C101.985 73.5459 102.196 74.5408 103.706 75C105.082 75.4081 107.042 75.5357 110.007 75.0765C111.225 74.8979 112.496 74.6428 113.74 74.3367C115.011 74.0306 116.229 73.6479 117.394 73.2143C118.241 72.9081 118.982 72.5765 119.618 72.2194C120.015 72.449 120.438 72.7551 120.888 73.0867C121.233 73.3418 121.524 73.5969 121.789 73.852C121.338 74.1326 120.941 74.4388 120.624 74.7194C119.962 75.3316 119.644 75.9694 119.644 76.6581C119.644 77.2194 119.856 77.7041 120.279 78.1122C120.703 78.5204 121.206 78.7245 121.789 78.7245C122.901 78.7245 123.801 78.3928 124.463 77.7041C125.125 77.0408 125.442 76.25 125.442 75.3571C125.442 75.2296 125.442 75.1275 125.416 75C126.475 74.5663 127.693 74.0816 129.043 73.5714C130.684 72.9847 132.194 72.4234 133.623 71.8877ZM49.8274 66.4286C50.2245 65.4337 50.754 64.5408 51.4159 63.801C52.0513 63.0612 52.7397 62.4745 53.481 62.0408C54.1694 61.6326 54.7783 61.4541 55.3343 61.4541C55.652 61.4541 55.7315 61.4541 55.7315 61.9643C55.7315 62.3724 55.5726 62.9081 55.3079 63.5204C54.9901 64.1837 54.5401 64.8469 53.9046 65.5357C53.2692 66.25 52.4485 66.9643 51.4689 67.653C50.8335 68.1122 50.0657 68.5459 49.2449 68.9286C49.2979 68.0612 49.4832 67.2194 49.8274 66.4286Z" fill="#111111"/>
<path d="M133.835 85.2806C132.961 85.0255 132.088 85.4847 131.796 86.301C123.033 113.444 97.4044 131.709 67.0367 131.862C37.5691 131.709 11.9406 113.444 3.17712 86.3265C2.91236 85.5102 2.01218 85.051 1.13848 85.3061C0.714869 85.4337 0.370684 85.7143 0.185353 86.0714C-0.026453 86.4541 -0.0529288 86.8622 0.0794501 87.2704C9.24007 115.612 35.9806 134.745 66.7719 135C66.8778 135 66.9837 135 67.0632 135C67.1691 135 67.2485 135 67.3544 135C99.0194 134.719 125.76 115.612 134.921 87.2449C135.053 86.8367 135 86.4286 134.815 86.0459C134.603 85.6888 134.259 85.4081 133.835 85.2806Z" fill="#111111"/>
<path d="M113.528 88.2143C112.919 88.2143 112.363 88.5459 112.072 89.0816C103.52 105.561 86.3905 115.816 67.328 115.816C48.2654 115.816 31.1356 105.587 22.5839 89.0816C22.3986 88.699 22.0544 88.4183 21.6572 88.2908C21.2336 88.1632 20.81 88.1888 20.4129 88.3928C20.0157 88.5714 19.751 88.903 19.5921 89.2857C19.4598 89.6939 19.4862 90.102 19.6716 90.4847C28.7528 108.036 47.021 118.929 67.328 118.929C87.6084 118.929 105.877 108.036 114.984 90.4847C115.382 89.7194 115.064 88.7755 114.243 88.3928C114.031 88.2653 113.766 88.2143 113.528 88.2143Z" fill="#111111"/>
</g>
<defs>
<clipPath id="clip0_1_96">
<rect width="135" height="135" fill="white"/>
</clipPath>
</defs>
</svg>
