<svg width="135" height="135" viewBox="0 0 135 135" fill="none" xmlns="http://www.w3.org/2000/svg">
<g clip-path="url(#clip0_118_3)">
<path d="M67.1956 128.801C67.2221 128.852 67.275 128.878 67.328 128.878H68.2811C68.3605 128.878 68.44 128.801 68.44 128.725L68.387 122.959V122.806C68.387 122.781 68.3605 122.73 68.3341 122.704C68.3076 122.679 68.2811 122.653 68.2282 122.653L67.2485 122.679C67.1691 122.679 67.0897 122.755 67.0897 122.832L67.1162 126.556L64.7333 122.857L64.6804 122.781C64.6539 122.73 64.601 122.704 64.548 122.704H63.5949C63.5155 122.704 63.436 122.781 63.436 122.857L63.489 128.597V128.776C63.489 128.801 63.5155 128.852 63.5419 128.878C63.5684 128.903 63.5949 128.929 63.6478 128.929L64.6274 128.903C64.7069 128.903 64.7863 128.827 64.7863 128.75L64.7598 125.051L67.1426 128.75L67.1956 128.801Z" fill="white"/>
<path d="M77.3623 121.607L76.5415 121.76C76.4886 121.76 76.4356 121.811 76.4092 121.888L75.4296 127.857L75.4031 128.087C75.4031 128.138 75.4031 128.189 75.456 128.214C75.4825 128.24 75.509 128.265 75.5619 128.265H75.5884L76.568 128.087C76.621 128.087 76.6739 128.036 76.7004 127.959L76.9122 126.429L78.8185 126.097L79.6392 127.449C79.6657 127.5 79.7451 127.525 79.7981 127.525L80.7512 127.372C80.8041 127.372 80.8306 127.347 80.8571 127.296C80.8836 127.245 80.8836 127.194 80.8571 127.168L77.5211 121.684C77.4682 121.633 77.4152 121.607 77.3623 121.607ZM77.0711 125.23L77.3093 123.673L78.1566 125.025L77.0711 125.23Z" fill="white"/>
<path d="M45.4062 125C45.4326 125.026 45.4591 125.077 45.4856 125.077L46.3858 125.459C46.4122 125.459 46.4122 125.459 46.4387 125.459C46.4917 125.459 46.5446 125.434 46.5711 125.383L49.0333 119.949C49.0598 119.923 49.0598 119.872 49.0333 119.847C49.0069 119.821 48.9804 119.77 48.9539 119.77L48.1861 119.464L48.0537 119.413C48.0273 119.388 47.9743 119.388 47.9478 119.413C47.9214 119.439 47.8684 119.464 47.8684 119.49L46.9153 121.582L44.6913 120.663L45.6444 118.571C45.6709 118.495 45.6444 118.418 45.565 118.393L44.7972 118.061L44.6648 118.01C44.6384 117.985 44.5854 117.985 44.5589 118.01C44.5325 118.036 44.4795 118.061 44.4795 118.087L42.0173 123.52C41.9908 123.597 42.0173 123.673 42.0967 123.699L42.9969 124.082C43.0233 124.107 43.0763 124.107 43.1028 124.082C43.1292 124.056 43.1822 124.031 43.1822 124.005L44.2147 121.684L46.4387 122.602L45.4062 124.923C45.3797 124.923 45.3797 124.975 45.4062 125Z" fill="white"/>
<path d="M53.1106 122.245C53.1901 122.27 53.2695 122.219 53.296 122.143L53.5607 121.301C53.5607 121.275 53.5607 121.224 53.5607 121.199C53.5343 121.173 53.5078 121.148 53.4813 121.122L51.4692 120.561C51.3897 120.536 51.3103 120.587 51.2838 120.663L51.0191 121.505C51.0191 121.531 51.0191 121.582 51.0191 121.607C51.0455 121.633 51.072 121.658 51.0985 121.684L51.4956 121.786L50.3572 125.51L49.96 125.408C49.9336 125.383 49.8806 125.408 49.8541 125.408C49.8277 125.434 49.8012 125.459 49.7747 125.485L49.5364 126.327C49.51 126.403 49.5629 126.48 49.6423 126.505L51.4956 127.041L51.6545 127.092C51.681 127.092 51.681 127.092 51.7074 127.092C51.7604 127.092 51.8398 127.041 51.8398 126.99L52.1046 126.148C52.131 126.071 52.0781 125.995 51.9987 125.969L51.6015 125.842L52.74 122.117L53.1106 122.245Z" fill="white"/>
<path d="M58.4322 122.015C57.9027 121.939 57.3732 122.015 56.9231 122.219C56.4465 122.423 56.0759 122.781 55.7582 123.214C55.4405 123.673 55.2551 124.184 55.1492 124.796C55.0433 125.383 55.0698 125.944 55.2287 126.454C55.3875 126.964 55.6523 127.398 56.0229 127.755C56.3936 128.087 56.8702 128.316 57.3997 128.393C57.5585 128.418 57.6909 128.418 57.8498 128.418C58.2204 128.418 58.5911 128.342 58.9353 128.189C59.4118 127.985 59.7825 127.628 60.1002 127.194C60.4179 126.76 60.6032 126.225 60.7091 125.638C60.815 125.026 60.7621 124.464 60.6297 123.954C60.4709 123.418 60.2061 122.985 59.8354 122.653C59.4383 122.321 58.9617 122.117 58.4322 122.015ZM59.4118 125.434C59.3589 125.842 59.2265 126.199 59.0147 126.48C58.8294 126.76 58.6176 126.964 58.3528 127.092C58.088 127.219 57.8498 127.245 57.5585 127.219C57.2938 127.194 57.0555 127.066 56.8437 126.862C56.6319 126.658 56.4995 126.403 56.4201 126.097C56.3406 125.765 56.3142 125.383 56.3936 124.975C56.4465 124.566 56.5789 124.209 56.7643 123.929C56.9496 123.648 57.1614 123.444 57.4261 123.291C57.6115 123.189 57.7968 123.138 58.0086 123.138C58.088 123.138 58.141 123.138 58.2204 123.163C58.4852 123.214 58.7235 123.316 58.9353 123.52C59.1471 123.725 59.2795 123.98 59.3589 124.311C59.4648 124.668 59.4913 125.051 59.4118 125.434Z" fill="white"/>
<path d="M39.2373 116.429C39.4491 116.403 39.6609 116.48 39.9257 116.633C40.1639 116.76 40.3493 116.939 40.4552 117.117C40.5611 117.296 40.6405 117.551 40.667 117.857L40.6935 118.01C40.6935 118.061 40.7199 118.087 40.7464 118.112C40.7729 118.138 40.8258 118.138 40.8523 118.138L41.726 118.01L41.8584 117.959C41.9378 117.934 41.9643 117.883 41.9643 117.806L41.9378 117.679C41.8849 117.219 41.726 116.837 41.4877 116.48C41.2494 116.148 40.9317 115.867 40.5346 115.612C39.9786 115.281 39.4226 115.153 38.9461 115.23C38.4165 115.306 37.9929 115.587 37.7017 116.071C37.1987 116.888 37.4369 117.781 38.443 118.75C38.7607 119.056 38.9461 119.337 39.0255 119.566C39.0784 119.745 39.052 119.898 38.9461 120.102C38.8402 120.281 38.7078 120.383 38.5224 120.408C38.3371 120.434 38.0988 120.383 37.8076 120.204C37.5428 120.051 37.331 119.847 37.1987 119.566C37.0398 119.286 36.9604 119.005 36.9604 118.648V118.469C36.9604 118.418 36.9339 118.393 36.9074 118.367C36.8809 118.342 36.828 118.316 36.775 118.342L35.8484 118.495L35.716 118.546C35.6631 118.571 35.6101 118.622 35.6101 118.699V118.827C35.6631 119.311 35.7954 119.77 36.0602 120.179C36.325 120.612 36.6427 120.944 37.0663 121.173C37.4369 121.403 37.8076 121.531 38.1783 121.582C38.2842 121.582 38.3636 121.607 38.4695 121.607C38.7342 121.607 38.999 121.556 39.2373 121.454C39.555 121.301 39.8198 121.097 40.0051 120.765C40.3228 120.281 40.4022 119.77 40.2434 119.311C40.0845 118.878 39.7933 118.418 39.3432 117.959C38.999 117.628 38.8137 117.372 38.7342 117.194C38.6813 117.041 38.7078 116.888 38.8137 116.735C38.9461 116.505 39.052 116.429 39.2373 116.429Z" fill="white"/>
<path d="M102.647 116.352C102.409 116.531 102.117 116.633 101.826 116.658C101.482 116.684 101.191 116.633 100.873 116.531L100.714 116.48C100.661 116.454 100.635 116.48 100.582 116.48C100.555 116.505 100.529 116.531 100.502 116.582L100.317 117.474V117.602C100.317 117.679 100.343 117.73 100.423 117.755L100.555 117.806C100.873 117.908 101.191 117.934 101.508 117.934C101.667 117.934 101.853 117.908 102.038 117.883C102.541 117.806 102.991 117.628 103.362 117.347C103.706 117.092 103.971 116.811 104.156 116.505C104.341 116.173 104.421 115.842 104.421 115.51C104.394 115.179 104.288 114.847 104.05 114.566C103.679 114.107 103.229 113.852 102.726 113.827C102.276 113.775 101.72 113.903 101.085 114.133C100.688 114.286 100.37 114.388 100.105 114.388C99.9198 114.388 99.7874 114.311 99.6815 114.158C99.5756 114.005 99.5492 113.878 99.6021 113.699C99.6551 113.495 99.8139 113.342 100.026 113.163C100.264 113.01 100.476 112.908 100.688 112.883C100.926 112.857 101.191 112.883 101.482 112.959L101.641 113.01C101.667 113.036 101.72 113.01 101.773 113.01C101.8 112.985 101.826 112.959 101.853 112.908L102.038 112.066V111.913C102.038 111.837 101.985 111.786 101.932 111.76L101.8 111.735C101.35 111.633 100.899 111.607 100.502 111.684C100.105 111.76 99.708 111.939 99.3109 112.219C98.7814 112.602 98.4636 113.036 98.3313 113.495C98.1989 113.98 98.3313 114.464 98.6755 114.923C99.0726 115.434 99.8933 115.918 101.508 115.255C101.932 115.102 102.25 115.025 102.514 115.025C102.7 115.025 102.859 115.128 102.991 115.306C103.123 115.459 103.15 115.612 103.123 115.791C103.044 115.995 102.912 116.173 102.647 116.352Z" fill="white"/>
<path d="M88.0585 119.796L89.5941 119.133L91.6592 123.469L91.7387 123.622C91.7651 123.673 91.8181 123.699 91.871 123.699C91.8975 123.699 91.924 123.699 91.924 123.673L92.6653 123.342L92.7977 123.291C92.8242 123.265 92.8506 123.24 92.8771 123.214C92.9036 123.189 92.9036 123.138 92.8771 123.112L90.7326 118.622L92.1093 118.01L92.2417 117.959C92.2682 117.934 92.2946 117.908 92.3211 117.883C92.3476 117.857 92.3476 117.806 92.3211 117.781L91.9505 117.015C91.924 116.939 91.8181 116.913 91.7651 116.939L87.7143 118.724L87.5819 118.776C87.5555 118.801 87.529 118.827 87.5025 118.852C87.476 118.878 87.476 118.929 87.5025 118.954L87.8732 119.719C87.8997 119.796 87.9791 119.821 88.0585 119.796Z" fill="white"/>
<path d="M96.2396 120.459L96.6897 121.224C96.7162 121.25 96.7427 121.275 96.7691 121.301H96.7956C96.8221 121.301 96.8486 121.301 96.875 121.275L98.6754 120.23C98.7548 120.179 98.7813 120.102 98.7283 120.025L98.2782 119.26C98.2518 119.235 98.2253 119.209 98.1988 119.184C98.1723 119.184 98.1194 119.184 98.0929 119.209L97.7487 119.413L95.7101 116.071L96.0543 115.867C96.1337 115.816 96.1602 115.74 96.1072 115.663L95.6571 114.898C95.6307 114.872 95.6042 114.847 95.5777 114.821C95.5512 114.821 95.4983 114.821 95.4718 114.847L93.6715 115.893C93.645 115.918 93.6185 115.944 93.592 115.969C93.592 115.995 93.592 116.046 93.6185 116.071L94.0951 116.811C94.148 116.888 94.2275 116.888 94.3069 116.862L94.6511 116.658L96.7162 120L96.372 120.204C96.2131 120.306 96.1867 120.383 96.2396 120.459Z" fill="white"/>
<path d="M86.5494 125.561L86.6024 125.612C86.6288 125.638 86.7083 125.663 86.7347 125.638L87.7673 125.332C87.8202 125.306 87.8467 125.281 87.8732 125.23C87.8732 125.179 87.8732 125.128 87.8202 125.102L85.6492 123.189C85.8875 122.985 86.0464 122.755 86.1523 122.5C86.3111 122.117 86.3376 121.709 86.2052 121.276C86.0993 120.944 85.914 120.663 85.6492 120.434C85.3845 120.204 85.0932 120.051 84.7226 120C84.3784 119.949 84.0077 119.974 83.6371 120.077L81.7838 120.638L81.6249 120.689C81.5984 120.689 81.5455 120.714 81.5455 120.765C81.519 120.791 81.519 120.842 81.5455 120.867L83.3458 126.352L83.3988 126.505C83.4253 126.556 83.4782 126.607 83.5312 126.607C83.5576 126.607 83.5577 126.607 83.5841 126.607L84.5108 126.327C84.5373 126.327 84.5902 126.301 84.5902 126.25C84.6167 126.224 84.6167 126.173 84.5902 126.148L83.8754 123.929L84.4843 123.75L86.5494 125.561ZM83.5576 122.857L83.1076 121.429L83.9548 121.173C84.2195 121.097 84.4578 121.097 84.6167 121.173C84.802 121.25 84.9079 121.403 84.9873 121.633C85.0668 121.862 85.0403 122.041 84.9609 122.219C84.8814 122.372 84.6961 122.5 84.4049 122.577L83.5576 122.857Z" fill="white"/>
<path d="M108.048 112.985L108.18 113.112C108.207 113.138 108.26 113.163 108.286 113.163C108.313 113.163 108.366 113.138 108.392 113.112L109.107 112.474C109.16 112.423 109.16 112.321 109.107 112.27L105.586 108.673L106.804 107.551C106.856 107.5 106.856 107.398 106.804 107.347L106.195 106.735C106.142 106.684 106.036 106.684 105.983 106.735L102.726 109.719L102.62 109.821C102.594 109.847 102.567 109.872 102.567 109.923C102.567 109.949 102.594 110 102.62 110.025L103.229 110.638C103.282 110.689 103.388 110.689 103.441 110.638L104.659 109.541L108.048 112.985Z" fill="white"/>
<path d="M57.0555 13.6735L57.9822 13.5459H58.0881C58.1675 13.5459 58.2205 13.4949 58.2205 13.4184L58.6176 10.3316C58.6441 10.1786 58.6441 10.051 58.6706 9.92346C58.7235 10.051 58.7765 10.1531 58.8294 10.2806L59.9679 13.0357L60.0208 13.1377C60.0473 13.1888 60.1267 13.2398 60.1797 13.2398L61.0798 13.1122H61.1857C61.2652 13.1122 61.3181 13.0612 61.3181 12.9847L62.1124 7.14285L62.1389 6.96428C62.1389 6.91326 62.1389 6.86224 62.0859 6.83673C62.0594 6.81122 62.0065 6.78571 61.9535 6.78571L60.8416 6.93877C60.7621 6.93877 60.7357 6.98979 60.7092 7.06632L60.365 10.051L60.3385 10.2806C60.3385 10.3826 60.312 10.4592 60.312 10.5612C60.2591 10.4082 60.1797 10.2551 60.1267 10.102L59.0412 7.42346L58.9883 7.32142C58.9618 7.2704 58.8824 7.21938 58.8294 7.24489L57.9292 7.37244H57.7969C57.7174 7.37244 57.6645 7.42346 57.6645 7.49999L57.2938 10.5357C57.2673 10.7143 57.2409 10.8928 57.2409 11.0714C57.1614 10.8928 57.1085 10.7143 57.0291 10.5612L55.8906 7.75509C55.8641 7.70407 55.7847 7.65305 55.7317 7.65305L54.5933 7.80611C54.5403 7.80611 54.5139 7.83162 54.4874 7.88264C54.4609 7.90815 54.4609 7.95917 54.4874 8.0102L56.8967 13.5714C56.9232 13.6479 56.9761 13.6735 57.0555 13.6735Z" fill="white"/>
<path d="M69.393 12.7041C69.393 12.7296 69.393 12.7806 69.4195 12.8061C69.446 12.8316 69.4725 12.8571 69.5254 12.8571L70.6109 12.9082C70.6904 12.9082 70.7698 12.8571 70.7698 12.7806L70.8757 10.3571L73.0467 7.11734C73.0732 7.06632 73.0732 7.0153 73.0467 6.96428C73.0202 6.91326 72.9673 6.88775 72.9143 6.88775L71.7494 6.83673H71.67C71.617 6.83673 71.5641 6.86224 71.5376 6.91326L70.4786 8.69897C70.3991 8.82652 70.3462 8.92856 70.2932 9.03061C70.2138 8.85203 70.1344 8.67346 70.0285 8.46938L69.2871 6.88775L69.2607 6.81122C69.2342 6.7602 69.1812 6.73469 69.1283 6.73469L67.8839 6.68367C67.831 6.65816 67.778 6.70918 67.7515 6.7602C67.7251 6.81122 67.7251 6.86224 67.7515 6.91326L69.4989 10.3316L69.393 12.602V12.7041Z" fill="white"/>
<path d="M76.7004 13.6479C76.8858 13.6735 77.0711 13.699 77.2299 13.699C78.7655 13.699 79.904 12.653 80.1952 10.9694C80.5129 9.13264 79.5863 7.70407 77.8654 7.42346C77.68 7.39795 77.5212 7.37244 77.3358 7.37244C75.8267 7.37244 74.6353 8.44386 74.3441 10.102C74.1852 10.9694 74.3441 11.7857 74.7412 12.4235C75.2178 13.0867 75.8797 13.5204 76.7004 13.6479ZM75.8002 10.3316C75.9856 9.26019 76.621 8.59693 77.3888 8.59693C77.4682 8.59693 77.5476 8.59693 77.6535 8.62244C78.6861 8.80101 78.9773 9.84693 78.8185 10.7653C78.7126 11.4286 78.3949 11.9643 77.9713 12.2704C77.68 12.4745 77.3358 12.551 76.9652 12.5C76.621 12.449 76.3033 12.2704 76.118 11.9898C75.8002 11.5561 75.6943 10.9694 75.8002 10.3316Z" fill="white"/>
<path d="M91.58 11.6071C91.6064 11.5816 91.6064 11.5306 91.58 11.5051C91.5535 11.4796 91.527 11.4286 91.5005 11.4286L90.6533 11.0714L90.5209 11.0204C90.4945 10.9949 90.4415 10.9949 90.415 11.0204C90.3885 11.0459 90.3356 11.0714 90.3356 11.0969L87.9528 16.301L87.8998 16.4286C87.8733 16.5051 87.8998 16.5816 87.9792 16.6071L88.9589 17.0408C88.9853 17.0663 89.0383 17.0663 89.0648 17.0408C89.0912 17.0153 89.1442 16.9898 89.1442 16.9643L90.0444 15L90.3091 14.8725L90.8122 17.6786V17.7551C90.8122 17.8061 90.8651 17.8571 90.8916 17.8571L92.083 18.3674C92.1095 18.3674 92.136 18.3929 92.136 18.3929C92.1624 18.3929 92.1889 18.3929 92.2154 18.3674C92.2683 18.3418 92.2683 18.2908 92.2683 18.2398L91.5535 14.3878L94.5453 13.0102C94.5982 12.9847 94.6247 12.9337 94.6247 12.8827C94.6247 12.8316 94.5982 12.7806 94.5453 12.7551L93.3009 12.2194C93.2479 12.1939 93.2215 12.1939 93.1685 12.2194L90.7592 13.3929L91.5005 11.7602L91.58 11.6071Z" fill="white"/>
<path d="M86.9995 11.5561C87.1584 11.0459 87.1054 10.5612 86.8406 10.1786C86.5494 9.69389 86.0464 9.38777 85.1992 9.15817C84.6696 9.00511 84.1137 8.87756 83.7165 8.85205H83.6106C83.5577 8.85205 83.4782 8.90307 83.4782 8.95409L81.8103 14.3112L81.7573 14.4388C81.7573 14.4643 81.7573 14.5153 81.7573 14.5408C81.7838 14.5663 81.8103 14.5918 81.8368 14.6174L82.8693 14.9235C82.9487 14.949 83.0282 14.898 83.0546 14.8214L83.7165 12.6786L84.0607 12.7806C84.5637 12.9592 84.6696 13.1633 84.6167 13.8265C84.5637 14.7194 84.5373 15.1021 84.5902 15.3061L84.6167 15.3827C84.6167 15.4337 84.6696 15.4592 84.7226 15.4847L85.8346 15.8163C85.8611 15.8163 85.861 15.8163 85.8875 15.8163C85.914 15.8163 85.967 15.7908 85.9934 15.7908C86.0199 15.7653 86.0464 15.7143 86.0464 15.6633L85.9934 15.3827C85.9405 15.1786 85.9934 14.5153 86.0199 13.8776C86.0464 13.4184 85.9934 13.0357 85.8081 12.7551C86.3906 12.551 86.8142 12.1429 86.9995 11.5561ZM85.6492 11.25C85.5169 11.6837 85.0668 11.8623 84.5108 11.6837L84.0872 11.5561L84.5108 10.1786C84.6167 10.2041 84.7491 10.2296 84.9079 10.2806C85.7552 10.5357 85.7287 10.9439 85.6492 11.25Z" fill="white"/>
<path d="M52.0515 9.7194C52.1309 9.69389 52.1839 9.61736 52.1574 9.54083L51.8926 8.64797C51.8926 8.62246 51.8662 8.57144 51.8132 8.57144C51.7867 8.54593 51.7338 8.54593 51.7073 8.57144L48.5567 9.4643L48.4243 9.51532C48.3449 9.54083 48.2919 9.61736 48.3184 9.69389L49.9864 15.1276L50.0393 15.2806C50.0393 15.3061 50.0658 15.3572 50.1188 15.3572C50.1452 15.3572 50.1717 15.3827 50.1982 15.3827C50.2247 15.3827 50.2247 15.3827 50.2511 15.3827L53.5341 14.4643L53.6665 14.4133C53.7459 14.3878 53.7989 14.3112 53.7724 14.2347L53.5077 13.3418C53.4812 13.2653 53.4018 13.2143 53.3223 13.2398L51.0719 13.8776L50.6748 12.5765L52.5281 12.0408L52.6604 11.9898C52.7399 11.9643 52.7928 11.8878 52.7663 11.8112L52.5016 10.9184C52.5016 10.8929 52.4751 10.8418 52.4222 10.8418C52.3957 10.8163 52.3427 10.8163 52.3163 10.8418L50.3306 11.4031L50.0129 10.3316L51.9985 9.77042L52.0515 9.7194Z" fill="white"/>
<path d="M42.0436 11.9643L41.9641 11.9133C41.9112 11.8878 41.8582 11.8878 41.8318 11.8878L40.9581 12.2449L40.8257 12.2959C40.7463 12.3215 40.7198 12.4235 40.7463 12.4745L43.0761 17.7041L43.1556 17.8572C43.182 17.8827 43.2085 17.9082 43.235 17.9337C43.2615 17.9337 43.2615 17.9337 43.2879 17.9337C43.3144 17.9337 43.3144 17.9337 43.3409 17.9337L44.294 17.551C44.3205 17.5255 44.347 17.5 44.3734 17.4745C44.3999 17.449 44.3999 17.398 44.3734 17.3725L43.3409 15.051C43.182 14.7194 43.0497 14.4133 42.9173 14.1327C43.182 14.3112 43.4203 14.4898 43.6321 14.6174L46.5445 16.5561C46.5974 16.5817 46.6504 16.5817 46.6768 16.5817L47.4976 16.25L47.63 16.199C47.7094 16.1735 47.7359 16.097 47.7094 16.0204L45.3795 10.7653L45.3266 10.6378C45.3001 10.6123 45.2736 10.5868 45.2471 10.5612C45.2207 10.5357 45.1677 10.5357 45.1412 10.5612L44.3205 10.9184L44.1881 10.9694C44.1087 10.9949 44.0822 11.097 44.1087 11.148L45.1148 13.4184C45.2207 13.6735 45.353 13.9541 45.5119 14.2602C45.3266 14.1327 45.1148 13.9796 44.9294 13.8521L42.0436 11.9643Z" fill="white"/>
<path d="M32.1418 117.781L32.9096 118.367C32.9361 118.393 32.9625 118.393 32.989 118.393C33.0155 118.393 33.0155 118.393 33.042 118.393C33.0949 118.367 33.1214 118.342 33.1479 118.291L35.16 112.296C35.1865 112.245 35.16 112.168 35.1071 112.143L34.4452 111.658C34.3922 111.633 34.3393 111.607 34.2863 111.658L28.9647 114.923L28.7794 115.026C28.7264 115.051 28.7264 115.102 28.7 115.128C28.7 115.179 28.7264 115.23 28.7529 115.255L29.5472 115.842C29.6001 115.867 29.6796 115.893 29.7325 115.842L31.0563 114.975L32.5919 116.122L32.0888 117.602C32.0888 117.679 32.0888 117.755 32.1418 117.781ZM32.1153 114.337L33.4921 113.495L32.989 115L32.1153 114.337Z" fill="white"/>
<path d="M30.9768 110.332L31.0827 110.434C31.1357 110.485 31.2416 110.485 31.2945 110.434L31.9035 109.821C31.9564 109.77 31.9564 109.668 31.9035 109.617L29.4677 107.398L29.3618 107.296C29.3089 107.245 29.2029 107.245 29.15 107.296L25.0463 111.505L24.9403 111.607C24.8874 111.658 24.8874 111.76 24.9403 111.811L25.6552 112.449C25.6817 112.474 25.7081 112.5 25.7611 112.5C25.7876 112.5 25.8405 112.474 25.867 112.449L27.6144 110.638L28.7529 111.684L28.8588 111.786C28.9117 111.837 29.0176 111.837 29.0706 111.786L29.653 111.173C29.6795 111.148 29.706 111.097 29.706 111.071C29.706 111.046 29.6795 110.995 29.653 110.969L28.4087 109.821L29.3618 108.852L30.9768 110.332Z" fill="white"/>
<path d="M1.13916 49.7194C2.01286 49.9745 2.88656 49.5153 3.17779 48.699C11.9413 21.5561 37.5698 3.29082 67.0639 3.13776C97.4051 3.29082 123.06 21.5561 131.824 48.699C132.088 49.5153 132.989 49.9745 133.862 49.7194C134.286 49.5918 134.63 49.3112 134.815 48.9541C135.027 48.5714 135.054 48.1633 134.921 47.7551C125.761 19.3878 99.0201 0.280612 67.3551 0C67.2492 0 67.1698 0 67.0639 0C66.958 0 66.852 0 66.7726 0C35.9813 0.280612 9.24075 19.3878 0.0801272 47.7551C-0.0522517 48.1633 0.000699895 48.5714 0.18603 48.9541C0.397837 49.3112 0.742022 49.5918 1.13916 49.7194Z" fill="white"/>
<path d="M133.623 71.8877L133.729 71.8367C134.312 71.5051 134.55 70.8673 134.312 70.2551C134.127 69.7449 133.544 69.2347 132.564 69.5153C131.161 70.0255 129.626 70.5612 127.984 71.1224C126.607 71.6071 125.337 72.1173 124.172 72.653C123.722 72.1173 123.166 71.5816 122.557 71.0969C121.683 70.4081 120.862 69.8979 120.094 69.5408L120.068 69.5153L120.015 69.4898C119.618 69.3367 119.194 69.3622 118.771 69.6173C118.135 70.051 117.314 70.4337 116.335 70.7908C115.302 71.1735 114.19 71.5051 113.025 71.7857C111.86 72.0663 110.722 72.2959 109.583 72.4745C107.995 72.7041 106.724 72.7551 105.903 72.7041C105.983 72.551 106.036 72.3979 106.036 72.2194C106.089 71.5561 105.692 70.9949 105.056 70.8928C104.897 70.8673 104.738 70.8163 104.606 70.7653C104.738 70.6888 104.871 70.6122 105.056 70.5357C105.374 70.4337 105.718 70.3316 106.089 70.2551C106.459 70.1786 106.804 70.153 107.148 70.153C107.915 70.153 108.445 69.6173 108.445 68.852C108.445 68.0867 107.915 67.551 107.148 67.551C106.592 67.551 106.009 67.6275 105.427 67.7551C104.818 67.8826 104.262 68.0867 103.785 68.3418C103.256 68.5969 102.832 68.9286 102.461 69.2857C102.303 69.4388 102.17 69.6173 102.064 69.8214C100.158 70.7143 98.2783 71.3775 96.4779 71.8112C94.4923 72.2959 92.9567 72.551 91.9241 72.551C91.5005 72.551 91.3152 72.3979 91.2093 72.2959C90.918 71.9643 90.6797 71.6326 90.5209 71.3775C90.3356 71.0459 90.1238 70.6888 89.8855 70.3316C89.4883 69.7704 88.9059 69.4643 88.244 69.4643C87.5556 69.4643 86.8937 69.6684 86.2053 70.051L87.2114 64.7194C89.5942 64.4898 92.1094 64.3112 94.6246 64.1837C95.1277 64.2347 95.4719 64.0561 95.6837 63.8775C95.9749 63.6479 96.1073 63.2908 96.1073 62.8826C96.1073 62.0918 95.5248 61.5306 94.6511 61.5306C91.0769 61.6581 87.635 61.9132 84.4579 62.2959C81.7045 62.6275 78.9245 63.0612 76.1975 63.5714C76.171 63.3673 76.0916 63.2143 76.0122 63.1122C75.8798 62.9081 75.5886 62.653 75.0855 62.5765C74.3707 62.4745 73.7617 62.8316 73.5234 63.4439C73.4175 63.6735 73.3646 63.903 73.3381 64.1071C72.3585 64.3112 71.3524 64.5153 70.3728 64.7194L66.8251 65.4847C66.2691 65.5612 65.9778 65.8163 65.8455 66.0204C65.6866 66.2245 65.5542 66.6071 65.6866 67.1173C65.819 67.6275 66.1367 67.8826 66.375 68.0102C66.7192 68.1888 67.0898 68.1888 67.4605 68.0612C68.6519 67.7806 69.7904 67.5255 70.8494 67.3214C71.5113 67.1939 72.1732 67.0408 72.8351 66.9132C72.7556 67.602 72.7292 68.2653 72.7292 68.903C72.7292 69.1837 72.7292 69.4643 72.7556 69.7704C71.2465 70.153 69.4991 70.3571 67.5399 70.3571C66.7986 70.3571 66.0573 70.3316 65.3159 70.2806C64.7335 70.2296 64.151 70.153 63.595 70.051C63.5685 69.949 63.5421 69.8469 63.4891 69.7449C63.1185 68.9286 62.3771 68.7755 61.7152 68.9796C61.3181 69.1326 60.9474 69.3877 60.6033 69.7194C59.9678 69.9745 59.3059 70.1786 58.7235 70.3826C56.6584 71.0969 55.3611 71.5306 55.3875 72.551C55.1492 72.5765 54.6727 72.5765 53.6666 72.449C53.243 72.3979 52.8988 72.3469 52.6076 72.3469C51.7339 72.3469 51.0455 72.1939 50.5425 71.8877C50.3836 71.7857 50.2512 71.7092 50.1453 71.6071C50.4366 71.4541 50.7013 71.2755 50.9661 71.1224C51.7868 70.6888 52.5546 70.2551 53.19 69.7959C54.355 68.9541 55.3346 68.0867 56.1289 67.1939C56.9496 66.301 57.5585 65.3826 57.9557 64.4643C58.3793 63.5459 58.5911 62.6786 58.5911 61.9388C58.5911 61.0459 58.3263 60.3061 57.8233 59.7449C57.2673 59.1326 56.473 58.8265 55.467 58.8265C54.4609 58.8265 53.4018 59.1326 52.3428 59.7449C51.3367 60.3316 50.4101 61.0969 49.5629 62.0663C48.7156 63.0357 48.0008 64.1581 47.4713 65.4337C46.9153 66.7347 46.6505 68.1122 46.6505 69.5408C46.6505 69.8724 46.677 70.2296 46.7299 70.5612C41.4877 73.3163 35.6895 75.3826 29.5207 76.7347C25.364 77.653 21.3661 78.1122 17.6066 78.1122C13.1851 78.0867 8.79015 77.6275 6.85742 73.9796C4.44812 69.4898 6.3279 63.2908 12.4173 55.5357C16.9712 49.7449 23.4313 45.0255 31.1092 41.9132C40.9847 37.9081 47.789 38.1888 51.9192 42.7296C52.3958 43.2398 53.1106 43.2908 53.6401 42.8316C54.1432 42.3979 54.3814 41.6071 53.799 40.9694C49.5893 36.301 42.6792 35.3316 33.8362 38.1888C30.7651 39.1837 27.8262 40.4337 25.0992 41.8877C34.2069 27.7806 50.0659 19.1837 67.5134 19.1837C86.576 19.1837 103.706 29.4132 112.258 45.9183C112.522 46.4541 113.105 46.7857 113.714 46.7857C113.978 46.7857 114.217 46.7347 114.429 46.6071C115.223 46.2245 115.567 45.2806 115.17 44.5153C105.877 26.9898 87.6086 16.0714 67.3281 16.0714C47.0212 16.0714 28.7794 26.9643 19.6717 44.5153C19.5658 44.7194 19.5128 44.9745 19.5128 45.2041C16.8123 47.0918 14.3765 49.2092 12.2585 51.5561C7.54579 56.7347 2.14473 64.4388 3.28319 71.8112C4.44812 79.3367 11.8084 80.6888 17.4742 80.6888C19.6452 80.6888 21.578 80.4847 22.7958 80.3571C31.4269 79.4643 39.9786 76.8877 47.5772 72.9337C47.6831 73.0612 47.789 73.2143 47.8949 73.3418C48.8745 74.4132 50.4101 74.9745 52.4487 74.9745C53.6401 74.9745 55.0433 74.7449 56.6319 74.2602C57.3732 74.0306 58.1675 73.75 59.0147 73.3673C59.0412 73.6479 59.0941 73.903 59.2 74.1326C59.3324 74.5153 59.809 75.3826 61.1857 75.3826C62.2183 75.3826 63.0655 74.8979 63.5421 73.9796C63.7539 73.5969 63.8863 73.2143 63.9922 72.8316C64.3099 72.8571 64.6805 72.8826 65.0247 72.9081C65.766 72.9592 66.5603 72.9592 67.3811 72.9592C69.5256 72.9592 71.4319 72.7551 73.0734 72.3724C73.2587 72.9337 73.497 73.4694 73.8147 73.9541C74.2912 74.7194 74.9531 75.3571 75.7739 75.8928C76.5946 76.4286 77.6272 76.7602 78.8186 76.8877C79.6394 76.9898 80.2748 76.5561 80.4336 75.8418C80.513 75.4847 80.4336 75.102 80.2218 74.8214C80.063 74.6173 79.7453 74.3367 79.1628 74.2857C78.395 74.1837 77.7596 73.9796 77.3095 73.6734C76.8329 73.3673 76.4358 72.9592 76.1445 72.5C75.8533 72.0408 75.6415 71.5051 75.5091 70.8928C75.3768 70.2551 75.3238 69.5918 75.3238 68.903C75.3238 68.3928 75.3503 67.8826 75.4297 67.3469L75.5886 66.3265C78.5274 65.7908 81.4662 65.3316 84.2991 64.9745L82.5252 74.2347C82.3928 74.8979 82.7635 75.4847 83.4783 75.6632C84.0873 75.8163 84.6962 75.5867 84.961 75.1275C85.8082 73.9541 86.5231 73.1122 87.1055 72.6275C87.4497 72.3214 87.7145 72.1684 87.8998 72.1173C87.9527 72.1939 88.0057 72.3214 88.0586 72.449C88.3234 73.0357 88.7205 73.5969 89.1706 74.1071C89.7531 74.7959 90.6798 75.1275 91.8976 75.1275C92.5066 75.1275 93.2744 75.051 94.1746 74.8979C95.0483 74.7449 96.0279 74.5408 97.0604 74.2857C98.093 74.0306 99.205 73.699 100.343 73.2908C100.899 73.0867 101.455 72.8826 102.011 72.653C101.985 72.7806 101.985 72.8826 101.985 72.9847C101.985 73.5459 102.197 74.5408 103.706 75C105.083 75.4081 107.042 75.5357 110.007 75.0765C111.225 74.8979 112.496 74.6428 113.74 74.3367C115.011 74.0306 116.229 73.6479 117.394 73.2143C118.241 72.9081 118.982 72.5765 119.618 72.2194C120.015 72.449 120.439 72.7551 120.889 73.0867C121.233 73.3418 121.524 73.5969 121.789 73.852C121.339 74.1326 120.942 74.4388 120.624 74.7194C119.962 75.3316 119.644 75.9694 119.644 76.6581C119.644 77.2194 119.856 77.7041 120.28 78.1122C120.703 78.5204 121.206 78.7245 121.789 78.7245C122.901 78.7245 123.801 78.3928 124.463 77.7041C125.125 77.0408 125.442 76.25 125.442 75.3571C125.442 75.2296 125.442 75.1275 125.416 75C126.475 74.5663 127.693 74.0816 129.043 73.5714C130.685 72.9847 132.194 72.4234 133.623 71.8877ZM49.8276 66.4286C50.2248 65.4337 50.7543 64.5408 51.4162 63.801C52.0516 63.0612 52.74 62.4745 53.4813 62.0408C54.1696 61.6326 54.7786 61.4541 55.3346 61.4541C55.6523 61.4541 55.7317 61.4541 55.7317 61.9643C55.7317 62.3724 55.5729 62.9081 55.3081 63.5204C54.9904 64.1837 54.5403 64.8469 53.9049 65.5357C53.2695 66.25 52.4487 66.9643 51.4691 67.653C50.8337 68.1122 50.0659 68.5459 49.2451 68.9286C49.2981 68.0612 49.4834 67.2194 49.8276 66.4286Z" fill="white"/>
<path d="M133.835 85.2806C132.961 85.0255 132.088 85.4847 131.796 86.301C123.033 113.444 97.4044 131.709 67.0367 131.862C37.5691 131.709 11.9406 113.444 3.17712 86.3265C2.91236 85.5102 2.01218 85.051 1.13848 85.3061C0.714869 85.4337 0.370684 85.7143 0.185353 86.0714C-0.026453 86.4541 -0.0529288 86.8622 0.0794501 87.2704C9.24007 115.612 35.9806 134.745 66.7719 135C66.8778 135 66.9837 135 67.0632 135C67.1691 135 67.2485 135 67.3544 135C99.0194 134.719 125.76 115.612 134.921 87.2449C135.053 86.8367 135 86.4286 134.815 86.0459C134.603 85.6888 134.259 85.4081 133.835 85.2806Z" fill="white"/>
<path d="M113.528 88.2143C112.919 88.2143 112.363 88.5459 112.072 89.0816C103.52 105.561 86.3906 115.816 67.3281 115.816C48.2655 115.816 31.1357 105.587 22.584 89.0816C22.3987 88.699 22.0545 88.4183 21.6574 88.2908C21.2338 88.1632 20.8101 88.1888 20.413 88.3928C20.0159 88.5714 19.7511 88.903 19.5923 89.2857C19.4599 89.6939 19.4864 90.102 19.6717 90.4847C28.7529 108.036 47.0212 118.929 67.3281 118.929C87.6085 118.929 105.877 108.036 114.984 90.4847C115.382 89.7194 115.064 88.7755 114.243 88.3928C114.031 88.2653 113.767 88.2143 113.528 88.2143Z" fill="white"/>
</g>
<defs>
<clipPath id="clip0_118_3">
<rect width="135" height="135" fill="white"/>
</clipPath>
</defs>
</svg>
